<?xml version="1.0" standalone="no"?>
<!DOCTYPE svg PUBLIC "-//W3C//DTD SVG 20010904//EN"
 "http://www.w3.org/TR/2001/REC-SVG-20010904/DTD/svg10.dtd">
<svg version="1.0" xmlns="http://www.w3.org/2000/svg"
 width="1024.000000pt" height="1024.000000pt" viewBox="0 0 1024.000000 1024.000000"
 preserveAspectRatio="xMidYMid meet">
<metadata>
Created by potrace 1.14, written by Peter Selinger 2001-2017
</metadata>
<g transform="translate(0.000000,1024.000000) scale(0.100000,-0.100000)"
fill="#000000" stroke="none">
<path d="M4890 10234 c-444 -29 -767 -80 -1111 -174 -722 -197 -1349 -524
-1949 -1019 -147 -120 -508 -482 -632 -631 -389 -470 -668 -951 -875 -1505
-313 -837 -398 -1749 -248 -2650 130 -780 457 -1543 936 -2186 157 -211 275
-346 494 -565 220 -220 320 -308 545 -478 1176 -887 2693 -1221 4146 -910 840
179 1616 567 2279 1140 538 464 1011 1095 1300 1734 246 543 390 1092 446
1700 17 175 17 687 1 860 -106 1129 -533 2127 -1267 2959 -131 149 -398 409
-545 532 -805 673 -1761 1073 -2805 1174 -153 15 -600 27 -715 19z m592 -335
c511 -35 1013 -148 1466 -330 170 -68 499 -230 646 -318 361 -217 642 -436
941 -736 507 -508 883 -1108 1115 -1782 22 -63 40 -123 40 -134 0 -10 -10 -29
-22 -44 -21 -23 -26 -24 -59 -15 -20 6 -43 18 -52 28 -9 9 -35 71 -58 137
-429 1229 -1411 2248 -2623 2724 -513 201 -992 301 -1535 320 -197 7 -204 8
-222 30 -28 35 -25 85 7 110 32 25 112 27 356 10z m-922 -49 c12 -12 20 -33
20 -53 0 -56 -28 -71 -185 -101 -182 -35 -466 -107 -596 -151 -127 -43 -170
-45 -198 -9 -27 34 -27 64 0 97 15 20 51 36 151 68 174 54 411 113 578 143
172 31 204 32 230 6z m-1930 -770 c14 -27 12 -76 -4 -92 -8 -8 -57 -45 -109
-82 -799 -567 -1410 -1403 -1710 -2341 -133 -417 -216 -929 -217 -1331 0 -85
-2 -93 -26 -118 -43 -42 -103 -31 -122 22 -12 36 1 377 23 563 110 948 497
1835 1120 2564 165 194 436 455 634 613 134 106 281 212 315 227 35 15 81 3
96 -25z m2950 -65 c1424 -157 2643 -1082 3178 -2410 191 -475 275 -916 276
-1450 0 -370 -30 -613 -121 -970 -230 -904 -811 -1722 -1593 -2245 -530 -354
-1090 -559 -1740 -637 -203 -24 -640 -24 -840 1 -491 59 -903 182 -1324 395
-1563 789 -2404 2522 -2055 4233 329 1615 1668 2863 3298 3073 287 37 638 41
921 10z m4288 -3776 c49 -17 56 -48 48 -222 -9 -187 -31 -429 -52 -562 -122
-780 -423 -1497 -890 -2120 -153 -204 -246 -309 -481 -542 -225 -224 -235
-233 -272 -233 -31 0 -44 6 -60 26 -12 15 -21 36 -21 47 0 12 67 85 187 201
417 404 695 778 937 1256 195 385 321 748 406 1170 57 285 90 581 90 811 0
119 10 154 49 168 14 5 26 10 27 10 1 1 15 -4 32 -10z"/>
<path d="M5145 8535 l-25 -24 0 -311 0 -311 25 -24 c15 -16 36 -25 55 -25 19
0 40 9 55 25 l25 24 0 311 0 311 -25 24 c-15 16 -36 25 -55 25 -19 0 -40 -9
-55 -25z"/>
<path d="M6520 6945 l-1045 -713 -175 5 c-140 5 -197 2 -280 -11 -286 -48
-514 -188 -672 -411 -136 -192 -191 -393 -187 -690 l2 -163 -754 -1101 c-415
-605 -758 -1111 -763 -1125 -22 -59 45 -123 101 -97 26 12 350 234 1627 1115
465 320 595 406 620 406 265 0 386 9 477 33 301 79 525 257 657 522 86 172
112 313 112 601 l0 201 267 379 c146 208 404 575 571 814 168 239 372 529 454
645 81 115 148 219 148 231 0 12 -9 33 -21 48 -48 60 0 89 -1139 -689z m-1085
-894 c370 -97 619 -406 642 -797 24 -407 -205 -761 -572 -883 -175 -58 -369
-65 -540 -21 -495 127 -763 647 -594 1155 98 294 339 500 658 560 105 20 301
13 406 -14z"/>
<path d="M5073 5745 c-197 -43 -370 -216 -418 -416 -45 -193 20 -409 163 -540
318 -291 828 -135 927 283 60 257 -74 528 -316 637 -115 52 -230 63 -356 36z
m279 -174 c121 -47 216 -171 240 -314 43 -260 -199 -496 -460 -448 -252 46
-394 302 -302 543 23 63 98 153 156 189 101 62 250 74 366 30z"/>
<path d="M1785 5175 c-16 -15 -25 -36 -25 -55 0 -19 9 -40 25 -55 l24 -25 311
0 311 0 24 25 c16 15 25 36 25 55 0 19 -9 40 -25 55 l-24 25 -311 0 -311 0
-24 -25z"/>
<path d="M7865 5175 c-16 -15 -25 -36 -25 -55 0 -19 9 -40 25 -55 l24 -25 351
0 351 0 24 25 c16 15 25 36 25 55 0 19 -9 40 -25 55 l-24 25 -351 0 -351 0
-24 -25z"/>
<path d="M5145 2455 l-25 -24 0 -351 0 -351 25 -24 c15 -16 36 -25 55 -25 19
0 40 9 55 25 l25 24 0 351 0 351 -25 24 c-15 16 -36 25 -55 25 -19 0 -40 -9
-55 -25z"/>
</g>
</svg>
